<svg width="36" height="36" viewBox="0 0 36 36" fill="none" xmlns="http://www.w3.org/2000/svg">
<path d="M17.5172 14.1056C15.6203 14.1056 8.14743 29.8635 7.17021 30.6554C6.19299 31.4473 5.50319 30.7165 4.87087 30.0447C4.1746 29.305 3.95115 28.3958 4.00862 27.3577C4.06609 26.3195 13.8383 6.9605 14.873 5.86125C15.9078 4.762 18 5.02839 18 5.02839" stroke="white" stroke-width="2"/>
<path d="M17.4839 14.1056C19.521 14.1056 27.5461 29.8635 28.5955 30.6554C29.645 31.4473 30.3857 30.7165 31.0648 30.0447C31.8125 29.305 32.0525 28.3958 31.9907 27.3577C31.929 26.3195 21.4347 6.9605 20.3235 5.86125C19.2123 4.762 17 5.02839 17 5.02839" stroke="white" stroke-width="2"/>
</svg>
