<svg width="36" height="36" viewBox="0 0 36 36" fill="none" xmlns="http://www.w3.org/2000/svg">
<g clip-path="url(#clip0_24_388)">
<mask id="path-1-inside-1_24_388" fill="white">
<path d="M2.16687 17.2589C2.16687 18.9121 2.41782 20.4967 2.89392 21.9934C2.83722 21.9892 2.79027 21.9847 2.73522 21.9847C2.10387 21.9847 1.53297 22.2247 1.12962 22.6615C0.611523 23.222 0.382023 23.9117 0.482223 24.601C0.527648 24.9186 0.637275 25.2237 0.804423 25.4977C0.456573 25.7773 0.201723 26.1661 0.0778227 26.6344C-0.0190773 27.0016 -0.118677 27.7658 0.400173 28.5535C0.366713 28.6049 0.335435 28.6577 0.306423 28.7117C-0.00557727 29.3002 -0.0246273 29.9675 0.250773 30.5867C0.668223 31.5254 1.70517 32.263 3.71967 33.0568C4.97307 33.5506 6.11787 33.8684 6.12807 33.8713C7.78497 34.2983 9.28407 34.5128 10.5816 34.5128C12.7075 34.5128 14.2947 33.9355 15.3103 32.7959C17.6173 33.1936 19.4968 33.0064 20.6983 32.8049C21.7143 33.9382 23.2981 34.513 25.4184 34.513C26.7157 34.513 28.2148 34.2985 29.8719 33.8713C29.8821 33.8684 31.0269 33.5506 32.2803 33.0568C34.2948 32.263 35.3317 31.5256 35.7492 30.5869C36.0246 29.9675 36.0057 29.3003 35.6937 28.7119C35.6646 28.6578 35.6333 28.6049 35.5998 28.5535C36.1188 27.766 36.019 27.0016 35.9221 26.6345C35.7982 26.1662 35.5434 25.7774 35.1955 25.4977C35.3605 25.2253 35.4702 24.9295 35.5177 24.6011C35.6181 23.9119 35.3884 23.2222 34.8703 22.6616C34.4671 22.2247 33.8961 21.9847 33.2647 21.9847C33.2334 21.9847 33.2083 21.9859 33.1765 21.9874C33.6508 20.4925 33.9034 18.9097 33.9034 17.2589C33.9034 8.54841 26.7991 1.4873 18.0351 1.4873C9.27117 1.4873 2.16687 8.54826 2.16687 17.2589ZM18.0351 3.03425C25.9441 3.03425 32.3565 9.40326 32.3565 17.2588C32.3563 18.3892 32.2206 19.5155 31.9521 20.6135C31.9462 20.6065 31.9402 20.597 31.9345 20.5901C31.5235 20.1019 30.9327 19.8313 30.2733 19.8313C29.7453 19.8313 29.2023 20.0045 28.6588 20.347C28.2984 20.5745 27.9001 20.98 27.4899 21.4867C27.1098 20.9629 26.5779 20.6119 25.9693 20.5169C25.853 20.499 25.7354 20.4902 25.6177 20.4905C24.2283 20.4905 23.3935 21.6895 23.0775 22.7671C22.9206 23.131 22.1677 24.7894 21.0354 25.9138C19.2832 27.6539 18.8667 29.4439 19.776 31.3711C18.5115 31.5254 17.4006 31.5101 16.2285 31.3621C17.1144 29.5441 16.7724 27.7039 14.9646 25.9138C13.8321 24.7894 13.0794 23.131 12.9225 22.7671C12.6064 21.6895 11.7715 20.4905 10.3822 20.4905C10.2652 20.4905 10.147 20.4986 10.0306 20.5169C9.42207 20.6119 8.89002 20.9629 8.51007 21.4867C8.09982 20.9798 7.70157 20.5745 7.34097 20.347C6.79767 20.0045 6.25452 19.8313 5.72667 19.8313C5.08677 19.8313 4.51257 20.0878 4.10352 20.5492C3.84504 19.4714 3.71424 18.367 3.71382 17.2588C3.71382 9.40326 10.1262 3.03425 18.0351 3.03425ZM12.9664 10.5055C12.2407 10.5119 11.541 10.9055 11.1763 11.5895C10.6459 12.5845 11.0254 13.8205 12.0231 14.3495C12.5496 14.6288 12.7555 13.5604 13.2771 13.3768C13.7431 13.2125 14.5386 13.9753 14.7888 13.5058C15.3192 12.5107 14.9425 11.2747 13.945 10.7458C13.6439 10.5854 13.3075 10.5028 12.9664 10.5055ZM23.2269 10.5055C22.897 10.5025 22.563 10.5805 22.2513 10.7458C21.2538 11.2747 20.8741 12.5107 21.4045 13.5058C21.6549 13.9753 22.4502 13.2125 22.9164 13.3768C23.4378 13.5604 23.6464 14.6288 24.1734 14.3495C25.1707 13.8205 25.5474 12.5845 25.017 11.5895C24.6525 10.9055 23.9526 10.5119 23.2269 10.5055ZM8.59212 12.6325C8.41936 12.6324 8.24828 12.6664 8.08866 12.7325C7.92903 12.7986 7.784 12.8955 7.66184 13.0177C7.53967 13.1398 7.44278 13.2849 7.37668 13.4445C7.31058 13.6041 7.27658 13.7752 7.27662 13.948C7.27662 14.6749 7.86537 15.2635 8.59212 15.2635C8.76489 15.2635 8.93597 15.2295 9.09559 15.1634C9.25521 15.0973 9.40025 15.0004 9.52241 14.8782C9.64457 14.7561 9.74147 14.611 9.80757 14.4514C9.87366 14.2918 9.90766 14.1207 9.90762 13.948C9.90766 13.7752 9.87366 13.6041 9.80757 13.4445C9.74147 13.2849 9.64457 13.1398 9.52241 13.0177C9.40025 12.8955 9.25521 12.7986 9.09559 12.7325C8.93597 12.6664 8.76489 12.6324 8.59212 12.6325ZM27.5572 12.6325C26.8305 12.6325 26.2387 13.2212 26.2387 13.948C26.2387 14.6749 26.8305 15.2635 27.5572 15.2635C27.73 15.2635 27.9011 15.2295 28.0607 15.1634C28.2203 15.0973 28.3653 15.0004 28.4875 14.8782C28.6097 14.7561 28.7066 14.611 28.7727 14.4514C28.8388 14.2918 28.8728 14.1207 28.8727 13.948C28.8728 13.7752 28.8388 13.6041 28.7727 13.4445C28.7066 13.2849 28.6097 13.1398 28.4875 13.0177C28.3653 12.8955 28.2203 12.7986 28.0607 12.7325C27.9011 12.6664 27.73 12.6324 27.5572 12.6325ZM13.189 17.1886C12.9205 17.1841 12.7701 17.3546 12.7701 17.8126C12.7701 19.0271 13.3512 21.0001 14.9119 22.1986C15.2224 21.1301 16.9299 20.2738 17.1738 20.3968C17.521 20.5718 17.5024 21.0593 18.0849 21.4867C18.6675 21.0592 18.6459 20.572 18.9933 20.3968C19.2373 20.2738 20.9446 21.1301 21.2551 22.1986C22.8157 21.0001 23.3968 19.027 23.3968 17.8126C23.3968 15.9808 21.0223 18.7729 18.0849 18.7853C15.882 18.7762 13.995 17.2016 13.189 17.1886ZM6.46797 21.7153C7.33677 22.2628 9.01257 25.1279 9.62637 26.2418C9.83202 26.615 10.1829 26.7722 10.4994 26.7722C11.1276 26.7722 11.6191 26.1515 10.558 25.363C8.96262 24.1765 9.52092 22.2361 10.2826 22.1167C10.3156 22.1121 10.3489 22.1101 10.3822 22.1107C11.0746 22.1107 11.3812 23.2945 11.3812 23.2945C11.3812 23.2945 12.2751 25.5292 13.8132 27.0565C15.2262 28.4599 15.4062 29.611 14.5573 31.0556C14.5327 31.0496 14.5335 31.091 14.3347 31.378C14.0568 31.7789 13.6864 32.0812 13.2565 32.3008C12.4972 32.6411 11.547 32.7052 10.5816 32.7052C9.02607 32.7052 7.42902 32.4316 6.53532 32.2012C6.49137 32.1899 1.05957 30.7661 1.74792 29.4676C1.86357 29.2495 2.05287 29.1629 2.29287 29.1629C3.26232 29.1629 5.02737 30.5956 5.78532 30.5956C5.95482 30.5956 6.07932 30.4658 6.12807 30.2909C6.46542 29.0842 1.21002 28.7126 1.65117 27.0446C1.72902 26.7496 1.94067 26.6311 2.23722 26.6315C3.51822 26.6315 6.39282 28.87 6.99522 28.87C7.04127 28.87 7.07397 28.8572 7.09197 28.8289C7.39377 28.3448 7.25637 27.9491 5.12892 26.6696C3.00162 25.3897 1.48167 24.6761 2.33097 23.7572C2.42862 23.6512 2.56707 23.605 2.73522 23.605C4.02687 23.6053 7.07742 26.365 7.07742 26.365C7.07742 26.365 7.90047 27.2174 8.39877 27.2174C8.51307 27.2174 8.61117 27.1702 8.67702 27.0593C9.03027 26.4674 5.39832 23.7319 5.19342 22.6028C5.05452 21.8378 5.28957 21.4514 5.72667 21.4514C5.72577 21.4634 5.98182 21.4087 6.46797 21.7153ZM30.8065 22.603C30.6016 23.7319 26.9697 26.4676 27.3229 27.0593C27.3889 27.1703 27.4867 27.2176 27.6012 27.2176C28.0993 27.2176 28.9227 26.365 28.9227 26.365C28.9227 26.365 31.9731 23.6054 33.2647 23.605C33.4329 23.605 33.5713 23.6512 33.669 23.7574C34.5183 24.6761 32.9985 25.3897 30.871 26.6696C28.7436 27.9491 28.606 28.3448 28.908 28.829C28.926 28.8572 28.9585 28.87 29.0046 28.87C29.607 28.87 32.4817 26.6315 33.7627 26.6315C34.0593 26.6312 34.2709 26.7496 34.3488 27.0446C34.7898 28.7126 29.5345 29.0842 29.8719 30.2909C29.9206 30.4658 30.0453 30.5957 30.2146 30.5957C30.9727 30.5957 32.7376 29.1629 33.7071 29.1629C33.9471 29.1629 34.1364 29.2495 34.252 29.4677C34.9405 30.7661 29.5086 32.1901 29.4646 32.2013C28.5709 32.4316 26.9739 32.7053 25.4184 32.7053C24.4657 32.7053 23.5269 32.644 22.7727 32.3155C22.3303 32.0947 21.9495 31.7881 21.6652 31.378C21.6036 31.2757 21.5113 31.1566 21.4513 31.0705C20.5924 29.6186 20.7688 28.4648 22.1868 27.0565C23.7249 25.5292 24.6186 23.2945 24.6186 23.2945C24.6186 23.2945 24.9252 22.1108 25.6176 22.1108C25.6509 22.1102 25.6843 22.1121 25.7173 22.1167C26.479 22.2361 27.0373 24.1765 25.4419 25.363C24.3808 26.1515 24.8724 26.7722 25.5004 26.7722C25.8169 26.7722 26.1679 26.6152 26.3736 26.242C26.9874 25.1281 28.6632 22.2629 29.532 21.7153C30.3702 21.1867 31.017 21.4429 30.8065 22.603Z"/>
</mask>
<path d="M2.16687 17.2589C2.16687 18.9121 2.41782 20.4967 2.89392 21.9934C2.83722 21.9892 2.79027 21.9847 2.73522 21.9847C2.10387 21.9847 1.53297 22.2247 1.12962 22.6615C0.611523 23.222 0.382023 23.9117 0.482223 24.601C0.527648 24.9186 0.637275 25.2237 0.804423 25.4977C0.456573 25.7773 0.201723 26.1661 0.0778227 26.6344C-0.0190773 27.0016 -0.118677 27.7658 0.400173 28.5535C0.366713 28.6049 0.335435 28.6577 0.306423 28.7117C-0.00557727 29.3002 -0.0246273 29.9675 0.250773 30.5867C0.668223 31.5254 1.70517 32.263 3.71967 33.0568C4.97307 33.5506 6.11787 33.8684 6.12807 33.8713C7.78497 34.2983 9.28407 34.5128 10.5816 34.5128C12.7075 34.5128 14.2947 33.9355 15.3103 32.7959C17.6173 33.1936 19.4968 33.0064 20.6983 32.8049C21.7143 33.9382 23.2981 34.513 25.4184 34.513C26.7157 34.513 28.2148 34.2985 29.8719 33.8713C29.8821 33.8684 31.0269 33.5506 32.2803 33.0568C34.2948 32.263 35.3317 31.5256 35.7492 30.5869C36.0246 29.9675 36.0057 29.3003 35.6937 28.7119C35.6646 28.6578 35.6333 28.6049 35.5998 28.5535C36.1188 27.766 36.019 27.0016 35.9221 26.6345C35.7982 26.1662 35.5434 25.7774 35.1955 25.4977C35.3605 25.2253 35.4702 24.9295 35.5177 24.6011C35.6181 23.9119 35.3884 23.2222 34.8703 22.6616C34.4671 22.2247 33.8961 21.9847 33.2647 21.9847C33.2334 21.9847 33.2083 21.9859 33.1765 21.9874C33.6508 20.4925 33.9034 18.9097 33.9034 17.2589C33.9034 8.54841 26.7991 1.4873 18.0351 1.4873C9.27117 1.4873 2.16687 8.54826 2.16687 17.2589ZM18.0351 3.03425C25.9441 3.03425 32.3565 9.40326 32.3565 17.2588C32.3563 18.3892 32.2206 19.5155 31.9521 20.6135C31.9462 20.6065 31.9402 20.597 31.9345 20.5901C31.5235 20.1019 30.9327 19.8313 30.2733 19.8313C29.7453 19.8313 29.2023 20.0045 28.6588 20.347C28.2984 20.5745 27.9001 20.98 27.4899 21.4867C27.1098 20.9629 26.5779 20.6119 25.9693 20.5169C25.853 20.499 25.7354 20.4902 25.6177 20.4905C24.2283 20.4905 23.3935 21.6895 23.0775 22.7671C22.9206 23.131 22.1677 24.7894 21.0354 25.9138C19.2832 27.6539 18.8667 29.4439 19.776 31.3711C18.5115 31.5254 17.4006 31.5101 16.2285 31.3621C17.1144 29.5441 16.7724 27.7039 14.9646 25.9138C13.8321 24.7894 13.0794 23.131 12.9225 22.7671C12.6064 21.6895 11.7715 20.4905 10.3822 20.4905C10.2652 20.4905 10.147 20.4986 10.0306 20.5169C9.42207 20.6119 8.89002 20.9629 8.51007 21.4867C8.09982 20.9798 7.70157 20.5745 7.34097 20.347C6.79767 20.0045 6.25452 19.8313 5.72667 19.8313C5.08677 19.8313 4.51257 20.0878 4.10352 20.5492C3.84504 19.4714 3.71424 18.367 3.71382 17.2588C3.71382 9.40326 10.1262 3.03425 18.0351 3.03425ZM12.9664 10.5055C12.2407 10.5119 11.541 10.9055 11.1763 11.5895C10.6459 12.5845 11.0254 13.8205 12.0231 14.3495C12.5496 14.6288 12.7555 13.5604 13.2771 13.3768C13.7431 13.2125 14.5386 13.9753 14.7888 13.5058C15.3192 12.5107 14.9425 11.2747 13.945 10.7458C13.6439 10.5854 13.3075 10.5028 12.9664 10.5055ZM23.2269 10.5055C22.897 10.5025 22.563 10.5805 22.2513 10.7458C21.2538 11.2747 20.8741 12.5107 21.4045 13.5058C21.6549 13.9753 22.4502 13.2125 22.9164 13.3768C23.4378 13.5604 23.6464 14.6288 24.1734 14.3495C25.1707 13.8205 25.5474 12.5845 25.017 11.5895C24.6525 10.9055 23.9526 10.5119 23.2269 10.5055ZM8.59212 12.6325C8.41936 12.6324 8.24828 12.6664 8.08866 12.7325C7.92903 12.7986 7.784 12.8955 7.66184 13.0177C7.53967 13.1398 7.44278 13.2849 7.37668 13.4445C7.31058 13.6041 7.27658 13.7752 7.27662 13.948C7.27662 14.6749 7.86537 15.2635 8.59212 15.2635C8.76489 15.2635 8.93597 15.2295 9.09559 15.1634C9.25521 15.0973 9.40025 15.0004 9.52241 14.8782C9.64457 14.7561 9.74147 14.611 9.80757 14.4514C9.87366 14.2918 9.90766 14.1207 9.90762 13.948C9.90766 13.7752 9.87366 13.6041 9.80757 13.4445C9.74147 13.2849 9.64457 13.1398 9.52241 13.0177C9.40025 12.8955 9.25521 12.7986 9.09559 12.7325C8.93597 12.6664 8.76489 12.6324 8.59212 12.6325ZM27.5572 12.6325C26.8305 12.6325 26.2387 13.2212 26.2387 13.948C26.2387 14.6749 26.8305 15.2635 27.5572 15.2635C27.73 15.2635 27.9011 15.2295 28.0607 15.1634C28.2203 15.0973 28.3653 15.0004 28.4875 14.8782C28.6097 14.7561 28.7066 14.611 28.7727 14.4514C28.8388 14.2918 28.8728 14.1207 28.8727 13.948C28.8728 13.7752 28.8388 13.6041 28.7727 13.4445C28.7066 13.2849 28.6097 13.1398 28.4875 13.0177C28.3653 12.8955 28.2203 12.7986 28.0607 12.7325C27.9011 12.6664 27.73 12.6324 27.5572 12.6325ZM13.189 17.1886C12.9205 17.1841 12.7701 17.3546 12.7701 17.8126C12.7701 19.0271 13.3512 21.0001 14.9119 22.1986C15.2224 21.1301 16.9299 20.2738 17.1738 20.3968C17.521 20.5718 17.5024 21.0593 18.0849 21.4867C18.6675 21.0592 18.6459 20.572 18.9933 20.3968C19.2373 20.2738 20.9446 21.1301 21.2551 22.1986C22.8157 21.0001 23.3968 19.027 23.3968 17.8126C23.3968 15.9808 21.0223 18.7729 18.0849 18.7853C15.882 18.7762 13.995 17.2016 13.189 17.1886ZM6.46797 21.7153C7.33677 22.2628 9.01257 25.1279 9.62637 26.2418C9.83202 26.615 10.1829 26.7722 10.4994 26.7722C11.1276 26.7722 11.6191 26.1515 10.558 25.363C8.96262 24.1765 9.52092 22.2361 10.2826 22.1167C10.3156 22.1121 10.3489 22.1101 10.3822 22.1107C11.0746 22.1107 11.3812 23.2945 11.3812 23.2945C11.3812 23.2945 12.2751 25.5292 13.8132 27.0565C15.2262 28.4599 15.4062 29.611 14.5573 31.0556C14.5327 31.0496 14.5335 31.091 14.3347 31.378C14.0568 31.7789 13.6864 32.0812 13.2565 32.3008C12.4972 32.6411 11.547 32.7052 10.5816 32.7052C9.02607 32.7052 7.42902 32.4316 6.53532 32.2012C6.49137 32.1899 1.05957 30.7661 1.74792 29.4676C1.86357 29.2495 2.05287 29.1629 2.29287 29.1629C3.26232 29.1629 5.02737 30.5956 5.78532 30.5956C5.95482 30.5956 6.07932 30.4658 6.12807 30.2909C6.46542 29.0842 1.21002 28.7126 1.65117 27.0446C1.72902 26.7496 1.94067 26.6311 2.23722 26.6315C3.51822 26.6315 6.39282 28.87 6.99522 28.87C7.04127 28.87 7.07397 28.8572 7.09197 28.8289C7.39377 28.3448 7.25637 27.9491 5.12892 26.6696C3.00162 25.3897 1.48167 24.6761 2.33097 23.7572C2.42862 23.6512 2.56707 23.605 2.73522 23.605C4.02687 23.6053 7.07742 26.365 7.07742 26.365C7.07742 26.365 7.90047 27.2174 8.39877 27.2174C8.51307 27.2174 8.61117 27.1702 8.67702 27.0593C9.03027 26.4674 5.39832 23.7319 5.19342 22.6028C5.05452 21.8378 5.28957 21.4514 5.72667 21.4514C5.72577 21.4634 5.98182 21.4087 6.46797 21.7153ZM30.8065 22.603C30.6016 23.7319 26.9697 26.4676 27.3229 27.0593C27.3889 27.1703 27.4867 27.2176 27.6012 27.2176C28.0993 27.2176 28.9227 26.365 28.9227 26.365C28.9227 26.365 31.9731 23.6054 33.2647 23.605C33.4329 23.605 33.5713 23.6512 33.669 23.7574C34.5183 24.6761 32.9985 25.3897 30.871 26.6696C28.7436 27.9491 28.606 28.3448 28.908 28.829C28.926 28.8572 28.9585 28.87 29.0046 28.87C29.607 28.87 32.4817 26.6315 33.7627 26.6315C34.0593 26.6312 34.2709 26.7496 34.3488 27.0446C34.7898 28.7126 29.5345 29.0842 29.8719 30.2909C29.9206 30.4658 30.0453 30.5957 30.2146 30.5957C30.9727 30.5957 32.7376 29.1629 33.7071 29.1629C33.9471 29.1629 34.1364 29.2495 34.252 29.4677C34.9405 30.7661 29.5086 32.1901 29.4646 32.2013C28.5709 32.4316 26.9739 32.7053 25.4184 32.7053C24.4657 32.7053 23.5269 32.644 22.7727 32.3155C22.3303 32.0947 21.9495 31.7881 21.6652 31.378C21.6036 31.2757 21.5113 31.1566 21.4513 31.0705C20.5924 29.6186 20.7688 28.4648 22.1868 27.0565C23.7249 25.5292 24.6186 23.2945 24.6186 23.2945C24.6186 23.2945 24.9252 22.1108 25.6176 22.1108C25.6509 22.1102 25.6843 22.1121 25.7173 22.1167C26.479 22.2361 27.0373 24.1765 25.4419 25.363C24.3808 26.1515 24.8724 26.7722 25.5004 26.7722C25.8169 26.7722 26.1679 26.6152 26.3736 26.242C26.9874 25.1281 28.6632 22.2629 29.532 21.7153C30.3702 21.1867 31.017 21.4429 30.8065 22.603Z" fill="white" stroke="white" stroke-width="300" mask="url(#path-1-inside-1_24_388)"/>
</g>
<defs>
<clipPath id="clip0_24_388">
<rect width="36" height="36" fill="white"/>
</clipPath>
</defs>
</svg>
