<svg width="36" height="36" viewBox="0 0 36 36" fill="none" xmlns="http://www.w3.org/2000/svg">
<g clip-path="url(#clip0_26_394)">
<path d="M17.2514 19.3306C17.2514 19.3306 15.2445 15.4635 15.3186 12.6378C15.3727 10.6185 19.9257 8.62248 21.7132 5.72411C23.4976 2.82417 21.4908 0 21.4908 0C21.4908 0 21.9373 2.08258 20.7476 4.23628C19.558 6.39307 15.1672 7.65836 13.46 11.3756C11.7529 15.0928 17.2514 19.3306 17.2514 19.3306Z" fill="white"/>
<path d="M24.7629 7.58264C24.7629 7.58264 17.9233 10.1859 17.9233 13.1584C17.9233 16.134 19.7804 17.0996 20.0801 18.0652C20.3768 19.0339 19.5595 20.6685 19.5595 20.6685C19.5595 20.6685 22.2354 18.8099 21.7873 16.6532C21.3408 14.4964 19.2598 13.8259 20.4509 11.6722C21.2466 10.2277 24.7629 7.58264 24.7629 7.58264Z" fill="white"/>
<path d="M16.5098 23.2594C22.8302 23.0339 25.1354 21.0393 25.1354 21.0393C21.0474 22.1533 10.1909 22.0806 10.1152 21.2633C10.0426 20.446 13.4601 19.7755 13.4601 19.7755C13.4601 19.7755 8.10835 19.7755 7.66186 21.1134C7.21529 22.4514 10.1939 23.4804 16.5098 23.2594Z" fill="white"/>
<path d="M25.6545 26.3927C25.6545 26.3927 31.8405 25.0733 31.2287 21.713C30.4872 17.6219 26.1736 19.927 26.1736 19.927C26.1736 19.927 29.2249 19.927 29.52 21.784C29.8182 23.6426 25.6545 26.3927 25.6545 26.3927Z" fill="white"/>
<path d="M22.6062 24.6097C22.6062 24.6097 21.0473 25.0191 18.7376 25.2787C15.6415 25.6263 11.8981 25.3513 11.5999 24.8306C11.3064 24.31 12.1205 24.0133 12.1205 24.0133C8.4018 24.9063 10.4365 26.4652 14.7949 26.7649C18.5306 27.0198 24.0909 25.6495 24.0909 25.6495L22.6062 24.6097Z" fill="white"/>
<path d="M13.0165 27.8572C13.0165 27.8572 11.3294 27.9052 11.2305 28.7981C11.1332 29.685 12.2688 30.4822 16.4339 30.7294C20.5976 30.9766 23.5237 29.5907 23.5237 29.5907L21.6404 28.4475C21.6404 28.4475 20.4492 28.6977 18.6153 28.945C16.7799 29.1937 13.0164 28.7456 12.8681 28.4011C12.7168 28.0534 13.0165 27.8572 13.0165 27.8572Z" fill="white"/>
<path d="M29.2218 31.8726C29.866 31.1774 29.0224 30.632 29.0224 30.632C29.0224 30.632 29.3191 30.9796 28.9267 31.3752C28.5296 31.7707 24.9098 32.761 19.1099 33.0592C13.3117 33.3573 7.01598 32.5138 6.81665 31.7707C6.62356 31.0275 10.041 30.4343 10.041 30.4343C9.64547 30.4837 4.88699 30.5826 4.73557 31.8726C4.58724 33.1595 6.81665 34.2008 15.7419 34.2008C24.6626 34.1993 28.5806 32.5632 29.2218 31.8726Z" fill="white"/>
<path d="M25.7532 34.7957C21.8367 35.5867 9.9436 35.0877 9.9436 35.0877C9.9436 35.0877 17.6731 36.9231 26.4963 35.3874C30.7141 34.652 30.9597 32.6111 30.9597 32.6111C30.9597 32.6111 29.6697 34 25.7532 34.7957Z" fill="white"/>
</g>
<defs>
<clipPath id="clip0_26_394">
<rect width="36" height="36" fill="white"/>
</clipPath>
</defs>
</svg>
